<svg width="157" height="161" viewBox="0 0 157 161" fill="none" xmlns="http://www.w3.org/2000/svg">
<path d="M156.999 160.416H0L5.00727 138.39L15.6924 91.4168C16.378 91.3795 113.528 91.4093 136.754 91.4168H141.701L145.352 107.907L156.991 160.423L156.999 160.416Z" fill="#E8E8E8"/>
<path d="M64.3494 160.412H0L5.00727 138.386L5.32768 137.604C13.2559 137.231 22.4508 139.414 28.3894 143.311C31.288 145.204 33.7767 147.67 36.7424 149.459C43.1356 153.289 50.9669 153.564 58.068 155.815C59.983 156.418 61.9054 157.215 63.2615 158.691C63.7161 159.19 64.0886 159.779 64.342 160.412H64.3494Z" fill="#C0C0C0"/>
<path d="M145.367 107.9V108.236C142.215 107.453 138.825 107.185 135.844 105.888C133.132 104.704 130.904 102.714 128.855 100.628C127.037 98.7724 125.368 96.7904 123.498 94.9946C122.551 94.093 121.575 93.2212 120.517 92.4686C120.01 92.1184 119.116 91.7756 118.371 91.418H141.709L145.36 107.908L145.367 107.9Z" fill="#C0C0C0"/>
<path d="M62.2191 141.776C53.9556 138.468 48.4863 132.708 48.4863 126.159C48.4863 119.609 54.2834 113.506 62.9642 110.25" stroke="#C0C0C0" stroke-width="1.49026" stroke-miterlimit="10"/>
<path d="M94.0273 110.25C102.708 113.506 108.505 119.415 108.505 126.159C108.505 132.902 103.036 138.468 94.7725 141.776" stroke="#C0C0C0" stroke-width="1.49026" stroke-miterlimit="10"/>
<path d="M78.4985 138.859C89.8195 138.859 98.997 133.174 98.997 126.162C98.997 119.149 89.8195 113.465 78.4985 113.465C67.1775 113.465 58 119.149 58 126.162C58 133.174 67.1775 138.859 78.4985 138.859Z" stroke="#8F8F8D" stroke-width="1.49026" stroke-miterlimit="10"/>
<path d="M77.6856 -0.00152802C60.093 0.497709 45.6524 14.8415 45.0489 32.434C44.9967 33.8721 45.0414 35.2878 45.1606 36.6812C45.4438 39.8033 46.256 42.8509 47.4035 45.7718L78.6691 125.24L109.898 45.8761C111.276 42.3666 112.155 38.6558 112.297 34.8855C112.312 34.4682 112.319 34.0509 112.319 33.6262C112.312 14.7222 96.7162 -0.545473 77.6856 -0.00152802Z" fill="#D7837F"/>
<path d="M78.6674 58.5886C93.116 58.5886 104.829 46.8757 104.829 32.4271C104.829 17.9785 93.116 6.26562 78.6674 6.26562C64.2188 6.26562 52.5059 17.9785 52.5059 32.4271C52.5059 46.8757 64.2188 58.5886 78.6674 58.5886Z" fill="white"/>
<path d="M89.9067 32.0701C89.9067 43.329 85.7265 49.5509 78.387 49.5509C71.9118 49.5509 67.5305 43.4855 67.4336 32.5321C67.4336 21.4222 72.2248 15.3047 78.9533 15.3047C85.6818 15.3047 89.9067 21.5191 89.9067 32.0701ZM71.9193 32.5768C71.9193 41.1905 74.5719 46.0786 78.6478 46.0786C83.2378 46.0786 85.4285 40.7285 85.4285 32.2713C85.4285 23.8141 83.3421 18.7695 78.7 18.7695C74.7731 18.7695 71.9193 23.5607 71.9193 32.5768Z" fill="#D7837F"/>
<path d="M135.055 58.5898L147.029 70.5566" stroke="#A3A3A3" stroke-width="0.74513" stroke-miterlimit="10"/>
<path d="M135.055 70.5566L147.029 58.5898" stroke="#A3A3A3" stroke-width="0.74513" stroke-miterlimit="10"/>
<path d="M19.7383 25.375L29.1716 34.8083" stroke="#A3A3A3" stroke-width="0.74513" stroke-miterlimit="10"/>
<path d="M19.7383 34.8083L29.1716 25.375" stroke="#A3A3A3" stroke-width="0.74513" stroke-miterlimit="10"/>
<path d="M15.0215 109.197C20.5354 112.938 27.644 114.257 34.1341 112.729C35.6765 112.364 37.2264 111.828 38.4558 110.829C39.6853 109.831 40.5645 108.281 40.4379 106.701C40.259 104.384 37.9119 102.64 35.5945 102.566C33.2772 102.491 31.079 103.743 29.4174 105.367C25.2447 109.451 23.896 115.963 25.5055 121.574C27.1149 127.185 31.4069 131.819 36.6079 134.472C41.8089 137.125 47.8296 137.907 53.6341 137.371C61.2419 136.67 68.7081 133.802 76.301 134.591C82.7165 135.262 88.7074 138.593 93.1335 143.287C97.5521 147.981 100.466 153.972 102.053 160.224" stroke="white" stroke-width="1.11769" stroke-miterlimit="10" stroke-dasharray="5.05 5.05"/>
<path d="M102.629 92.043C104.738 95.0682 108.284 96.8193 111.891 97.5793C115.497 98.3393 119.216 98.2126 122.904 98.1977C126.585 98.1828 130.34 98.3021 133.82 99.5017C138.425 101.096 142.329 104.628 144.379 109.047" stroke="white" stroke-width="1.11769" stroke-miterlimit="10" stroke-dasharray="5.05 5.05"/>
<path d="M147.089 121.328C139.317 122.789 131.568 126.35 127.015 132.811C124.347 136.596 122.932 141.156 122.283 145.746C121.635 150.336 121.717 154.993 121.799 159.628" stroke="white" stroke-width="1.11769" stroke-miterlimit="10" stroke-dasharray="5.05 5.05"/>
</svg>
